# xmcd
#
# Track frame offsets: 
#        150
#        17072
#        35224
#        48669
#        64254
#        76777
#        92745
#        107676
#        128651
#        143743
#        157693
#        176062
#        196999
#        220085
#
# Disc length: 3258 seconds
#
# Revision: 0
# Processed by: cddbd v1.5.2PL0 Copyright (c) Steve Scherf et al.
# Submitted via: ExactAudioCopy v0.95a5
#
DISCID=ba0cb80e
DTITLE=Eddie Taylor - Ready For Eddie Plus [2003 Reissue+]
DYEAR=1974
DGENRE=Blues
TTITLE0=I'm A Country Boy
TTITLE1=Seems Like A Million Years
TTITLE2=Gamblin' Man
TTITLE3=After Hours
TTITLE4=Sloppy Drunk
TTITLE5=Ready For Eddie
TTITLE6=You Don't Love Me
TTITLE7=Too Late To Cry
TTITLE8=You'll Always Have A Home
TTITLE9=Playboy Boogie
TTITLE10=My Little Machine
TTITLE11=Cross Cut Saw
TTITLE12=I Used To Have Some Friends [bonus trk]
TTITLE13=I Know My Baby [bonus trk]
EXTD=
EXTT0=
EXTT1=
EXTT2=
EXTT3=
EXTT4=
EXTT5=
EXTT6=
EXTT7=
EXTT8=
EXTT9=
EXTT10=
EXTT11=
EXTT12=
EXTT13=
PLAYORDER=
